<svg fill="#000000" xmlns="http://www.w3.org/2000/svg"  viewBox="0 0 50 50" width="70px" height="70px" baseProfile="basic"><path style="fill:#FFFFFF;" d="M25,8c9.389,0,17,7.611,17,17s-7.611,17-17,17S8,34.389,8,25S15.611,8,25,8z M25,41c8.837,0,16-7.163,16-16	S33.837,9,25,9S9,16.163,9,25S16.163,41,25,41z"/><path style="fill:#FFFFFF;" d="M31.364,30.657c0.195,0.195,0.195,0.512,0,0.707c-0.195,0.195-0.512,0.195-0.707,0C30.613,31.32,18.68,19.387,18.636,19.343	c-0.195-0.195-0.195-0.512,0-0.707c0.195-0.195,0.512-0.195,0.707,0C19.387,18.68,31.32,30.613,31.364,30.657z"/><path style="fill:#FFFFFF;" d="M19.343,31.364c-0.195,0.195-0.512,0.195-0.707,0c-0.195-0.195-0.195-0.512,0-0.707	c0.044-0.044,11.977-11.977,12.021-12.021c0.195-0.195,0.512-0.195,0.707,0c0.195,0.195,0.195,0.512,0,0.707	C31.32,19.387,19.387,31.32,19.343,31.364z"/></svg>